name analog
datacolumns 19
datarows 67
range 0.5145 0.5475
endheader
time	ground_force_vx	ground_force_vy	ground_force_vz	ground_force_px	ground_force_py	ground_force_pz	l_ground_force_vx	l_ground_force_vy	l_ground_force_vz	l_ground_force_px	l_ground_force_py	l_ground_force_pz	ground_torque_x	ground_torque_y	ground_torque_z	l_ground_torque_x	l_ground_torque_y	l_ground_torque_z
0.5145	-0.0	-0.0	-0.0	-4.929385662078857	-7.406938076019287	-757.9603271484375	-0.0	-0.0	-0.0	-35.218597412109375	16.113964080810547	76.73019409179688	-0.0	-0.0	-0.0	-0.0	-0.0	-0.0
0.515	-0.0	-0.0	-0.0	-6.208102703094482	-7.56235933303833	-757.5890502929688	-0.0	-0.0	-0.0	-35.209110260009766	16.085695266723633	76.48916625976562	-0.0	-0.0	-0.0	-0.0	-0.0	-0.0
0.5155	-0.0	-0.0	-0.0	-6.235502243041992	-6.778522968292236	-757.1629638671875	-0.0	-0.0	-0.0	-35.05353546142578	16.459688186645508	75.47325897216797	-0.0	-0.0	-0.0	-0.0	-0.0	-0.0
0.516	-0.0	-0.0	-0.0	-7.2213969230651855	-7.097879886627197	-757.14404296875	-0.0	-0.0	-0.0	-34.5547981262207	16.350505828857422	75.37992095947266	-0.0	-0.0	-0.0	-0.0	-0.0	-0.0
0.5165	-0.0	-0.0	-0.0	-7.751957893371582	-7.285323143005371	-757.1622314453125	-0.0	-0.0	-0.0	-34.88880157470703	16.5158748626709	76.52635955810547	-0.0	-0.0	-0.0	-0.0	-0.0	-0.0
0.517	-0.0	-0.0	-0.0	-8.366924285888672	-7.786936283111572	-756.9393310546875	-0.0	-0.0	-0.0	-34.983089447021484	16.184823989868164	75.78672790527344	-0.0	-0.0	-0.0	-0.0	-0.0	-0.0
0.5175	-0.0	-0.0	-0.0	-8.672433853149414	-6.886786937713623	-759.7653198242188	-0.0	-0.0	-0.0	-34.88880157470703	15.854228973388672	76.8585205078125	-0.0	-0.0	-0.0	-0.0	-0.0	-0.0
0.518	-0.0	-0.0	-0.0	-9.254058837890623	-7.190986633300781	-760.6929931640625	-0.0	-0.0	-0.0	-35.23199844360352	16.19944190979004	76.8585205078125	-0.0	-0.0	-0.0	-0.0	-0.0	-0.0
0.5185	-0.0	-0.0	-0.0	-9.625125885009766	-6.684780120849609	-763.4989624023438	-0.0	-0.0	-0.0	-34.739383697509766	16.11445426940918	77.07445526123047	-0.0	-0.0	-0.0	-0.0	-0.0	-0.0
0.519	-0.0	-0.0	-0.0	-9.639577865600586	-6.243966102600098	-762.2965698242188	-0.0	-0.0	-0.0	-34.79439163208008	16.184568405151367	75.12319946289062	-0.0	-0.0	-0.0	-0.0	-0.0	-0.0
0.5195	-0.0	-0.0	-0.0	-9.972128868103027	-6.313685417175293	-764.2428588867188	-0.0	-0.0	-0.0	-34.96831512451172	16.104564666748047	74.83086395263672	-0.0	-0.0	-0.0	-0.0	-0.0	-0.0
0.52	-0.0	-0.0	-0.0	-9.208281517028809	-5.263588905334473	-765.9696655273438	-0.0	-0.0	-0.0	-35.162193298339844	15.754767417907717	76.46824645996094	-0.0	-0.0	-0.0	-0.0	-0.0	-0.0
0.5205	-0.0	-0.0	-0.0	-9.699258804321287	-4.392054557800293	-763.5555419921875	-0.0	-0.0	-0.0	-35.13698196411133	16.189455032348633	75.78585052490234	-0.0	-0.0	-0.0	-0.0	-0.0	-0.0
0.521	-0.0	-0.0	-0.0	-9.198610305786133	-4.436683177947998	-763.9085693359375	-0.0	-0.0	-0.0	-34.80442428588867	16.194534301757812	74.42176818847656	-0.0	-0.0	-0.0	-0.0	-0.0	-0.0
0.5215	-0.0	-0.0	-0.0	-9.347101211547852	-3.565216064453125	-762.1029663085938	-0.0	-0.0	-0.0	-34.725223541259766	16.204818725585938	75.35441589355469	-0.0	-0.0	-0.0	-0.0	-0.0	-0.0
0.522	-0.0	-0.0	-0.0	-9.298046112060549	-3.114530086517334	-758.0039672851562	-0.0	-0.0	-0.0	-35.07802200317383	15.955708503723145	76.13640594482422	-0.0	-0.0	-0.0	-0.0	-0.0	-0.0
0.5225	-0.0	-0.0	-0.0	-8.742630004882812	-2.0601422786712646	-757.7116088867188	-0.0	-0.0	-0.0	-34.9095573425293	16.210189819335938	76.17697143554688	-0.0	-0.0	-0.0	-0.0	-0.0	-0.0
0.523	-0.0	-0.0	-0.0	-8.113054275512695	-1.347151279449463	-755.1593627929688	-0.0	-0.0	-0.0	-34.96783447265625	15.866125106811523	76.2179946899414	-0.0	-0.0	-0.0	-0.0	-0.0	-0.0
0.5235	-0.0	-0.0	-0.0	-7.524522304534912	-0.6444538831710815	-752.2733154296875	-0.0	-0.0	-0.0	-34.96250534057617	16.199817657470703	76.11540222167969	-0.0	-0.0	-0.0	-0.0	-0.0	-0.0
0.524	-0.0	-0.0	-0.0	-7.420004844665527	-0.2880828976631164	-751.2752685546875	-0.0	-0.0	-0.0	-34.98884582519531	16.109886169433594	76.1358642578125	-0.0	-0.0	-0.0	-0.0	-0.0	-0.0
0.5245	-0.0	-0.0	-0.0	-7.646096229553223	0.1522764563560485	-750.445556640625	-0.0	-0.0	-0.0	-35.06240463256836	15.840001106262209	76.6708755493164	-0.0	-0.0	-0.0	-0.0	-0.0	-0.0
0.525	-0.0	-0.0	-0.0	-6.72222375869751	0.1100685000419616	-746.6224365234375	-0.0	-0.0	-0.0	-34.70988464355469	16.09918212890625	74.79480743408203	-0.0	-0.0	-0.0	-0.0	-0.0	-0.0
0.5255	-0.0	-0.0	-0.0	-6.54930591583252	0.807445764541626	-743.8805541992188	-0.0	-0.0	-0.0	-34.8834114074707	16.020015716552734	76.19890594482422	-0.0	-0.0	-0.0	-0.0	-0.0	-0.0
0.526	-0.0	-0.0	-0.0	-5.584018230438232	0.1570932865142822	-741.78271484375	-0.0	-0.0	-0.0	-35.130130767822266	16.62261962890625	75.69954681396484	-0.0	-0.0	-0.0	-0.0	-0.0	-0.0
0.5265	-0.0	-0.0	-0.0	-4.974451065063477	0.2155675888061523	-740.723876953125	-0.0	-0.0	-0.0	-34.73167419433594	16.194534301757812	75.12512969970703	-0.0	-0.0	-0.0	-0.0	-0.0	-0.0
0.527	-0.0	-0.0	-0.0	-4.3304524421691895	-0.1621592342853546	-740.5970458984375	-0.0	-0.0	-0.0	-34.9727783203125	16.363439559936523	76.13509368896484	-0.0	-0.0	-0.0	-0.0	-0.0	-0.0
0.5275	-0.0	-0.0	-0.0	-4.555134296417236	-0.116097867488861	-742.0096435546875	-0.0	-0.0	-0.0	-34.81588363647461	15.96897315979004	77.14459991455078	-0.0	-0.0	-0.0	-0.0	-0.0	-0.0
0.528	-0.0	-0.0	-0.0	-5.095870971679688	-0.6130505204200745	-740.3727416992188	-0.0	-0.0	-0.0	-34.79379653930664	15.941370010375977	76.11307525634766	-0.0	-0.0	-0.0	-0.0	-0.0	-0.0
0.5285	-0.0	-0.0	-0.0	-5.563893795013428	-0.7912360429763794	-740.9715576171875	-0.0	-0.0	-0.0	-34.62601852416992	16.020214080810547	75.32318878173828	-0.0	-0.0	-0.0	-0.0	-0.0	-0.0
0.529	-0.0	-0.0	-0.0	-6.479344367980957	-0.969436764717102	-737.9889526367188	-0.0	-0.0	-0.0	-34.97826385498047	16.346223831176758	75.05968475341797	-0.0	-0.0	-0.0	-0.0	-0.0	-0.0
0.5295	-0.0	-0.0	-0.0	-7.499223709106445	-0.5735343098640442	-740.2870483398438	-0.0	-0.0	-0.0	-34.883148193359375	16.11594009399414	75.78347778320312	-0.0	-0.0	-0.0	-0.0	-0.0	-0.0
0.53	-0.0	-0.0	-0.0	-7.911842346191406	-1.3814973831176758	-740.0003051757812	-0.0	-0.0	-0.0	-34.905879974365234	16.194534301757812	75.14842224121094	-0.0	-0.0	-0.0	-0.0	-0.0	-0.0
0.5305	-0.0	-0.0	-0.0	-8.380171775817871	-1.5376620292663574	-741.9865112304688	-0.0	-0.0	-0.0	-34.96680450439453	16.188770294189453	77.1869888305664	-0.0	-0.0	-0.0	-0.0	-0.0	-0.0
0.531	-0.0	-0.0	-0.0	-8.19050121307373	-1.0920321941375732	-743.6857299804688	-0.0	-0.0	-0.0	-34.961055755615234	16.34562873840332	75.19377136230469	-0.0	-0.0	-0.0	-0.0	-0.0	-0.0
0.5315	-0.0	-0.0	-0.0	-8.36880874633789	-1.7769535779953003	-744.4136962890625	-0.0	-0.0	-0.0	-34.89457702636719	16.177114486694336	74.82076263427734	-0.0	-0.0	-0.0	-0.0	-0.0	-0.0
0.532	-0.0	-0.0	-0.0	-8.268091201782227	-1.2307491302490234	-742.0535888671875	-0.0	-0.0	-0.0	-34.799346923828125	16.02628517150879	76.72172546386719	-0.0	-0.0	-0.0	-0.0	-0.0	-0.0
0.5325	-0.0	-0.0	-0.0	-8.70836067199707	-0.8741846680641174	-741.3925170898438	-0.0	-0.0	-0.0	-34.97243881225586	16.03803253173828	73.20375061035156	-0.0	-0.0	-0.0	-0.0	-0.0	-0.0
0.533	-0.0	-0.0	-0.0	-8.803093910217285	0.0776422172784805	-743.0450439453125	-0.0	-0.0	-0.0	-34.96653747558594	15.924625396728516	76.13361358642578	-0.0	-0.0	-0.0	-0.0	-0.0	-0.0
0.5335	-0.0	-0.0	-0.0	-8.96975326538086	0.3391763567924499	-740.5266723632812	-0.0	-0.0	-0.0	-34.6263313293457	16.032400131225586	75.47786712646484	-0.0	-0.0	-0.0	-0.0	-0.0	-0.0
0.534	-0.0	-0.0	-0.0	-9.623140335083008	1.0637725591659546	-739.558837890625	-0.0	-0.0	-0.0	-34.81117248535156	16.12240219116211	75.3851318359375	-0.0	-0.0	-0.0	-0.0	-0.0	-0.0
0.5345	-0.0	-0.0	-0.0	-9.415468215942385	1.5268765687942505	-739.2286987304688	-0.0	-0.0	-0.0	-34.894752502441406	16.01459503173828	76.46088409423828	-0.0	-0.0	-0.0	-0.0	-0.0	-0.0
0.535	-0.0	-0.0	-0.0	-9.801410675048828	1.27716326713562	-736.7566528320312	-0.0	-0.0	-0.0	-34.96030044555664	16.350385665893555	75.15074157714844	-0.0	-0.0	-0.0	-0.0	-0.0	-0.0
0.5355	-0.0	-0.0	-0.0	-9.57504940032959	1.1468960046768188	-735.3206787109375	-0.0	-0.0	-0.0	-35.12708282470703	16.0985107421875	76.20384979248047	-0.0	-0.0	-0.0	-0.0	-0.0	-0.0
0.536	-0.0	-0.0	-0.0	-9.72394561767578	0.920990228652954	-733.625244140625	-0.0	-0.0	-0.0	-34.79328918457031	15.961179733276367	76.08531951904297	-0.0	-0.0	-0.0	-0.0	-0.0	-0.0
0.5365	-0.0	-0.0	-0.0	-8.968893051147461	0.7190181016921997	-732.1419677734375	-0.0	-0.0	-0.0	-35.04943084716797	16.092304229736328	76.2044448852539	-0.0	-0.0	-0.0	-0.0	-0.0	-0.0
0.537	-0.0	-0.0	-0.0	-8.058971405029297	0.7841743230819702	-729.153564453125	-0.0	-0.0	-0.0	-34.7932243347168	16.00228500366211	75.8056640625	-0.0	-0.0	-0.0	-0.0	-0.0	-0.0
0.5375	-0.0	-0.0	-0.0	-7.09596586227417	0.1299688220024109	-725.8804931640625	-0.0	-0.0	-0.0	-35.20353317260742	16.29688835144043	75.38224792480469	-0.0	-0.0	-0.0	-0.0	-0.0	-0.0
0.538	-0.0	-0.0	-0.0	-6.743521213531494	0.2916878163814544	-723.9707641601562	-0.0	-0.0	-0.0	-34.58672332763672	16.169612884521484	75.7570571899414	-0.0	-0.0	-0.0	-0.0	-0.0	-0.0
0.5385	-0.0	-0.0	-0.0	-5.715590000152588	0.7899500131607056	-722.2286987304688	-0.0	-0.0	-0.0	-34.9844970703125	15.7634916305542	76.6873550415039	-0.0	-0.0	-0.0	-0.0	-0.0	-0.0
0.539	-0.0	-0.0	-0.0	-4.728157043457031	0.6361780166625977	-718.0633544921875	-0.0	-0.0	-0.0	-35.16343307495117	16.432994842529297	75.20189666748047	-0.0	-0.0	-0.0	-0.0	-0.0	-0.0
0.5395	-0.0	-0.0	-0.0	-3.790072202682495	1.063394546508789	-717.5638427734375	-0.0	-0.0	-0.0	-34.7413444519043	16.361818313598633	74.47589874267578	-0.0	-0.0	-0.0	-0.0	-0.0	-0.0
0.54	-0.0	-0.0	-0.0	-3.7406280040740967	1.687269687652588	-716.1259155273438	-0.0	-0.0	-0.0	-34.56261444091797	15.937355995178224	75.0541000366211	-0.0	-0.0	-0.0	-0.0	-0.0	-0.0
0.5405	-0.0	-0.0	-0.0	-4.448060035705566	1.6810234785079956	-714.105224609375	-0.0	-0.0	-0.0	-35.14448547363281	16.11094856262207	76.80870819091797	-0.0	-0.0	-0.0	-0.0	-0.0	-0.0
0.541	-0.0	-0.0	-0.0	-4.620135307312012	2.393991470336914	-711.3292846679688	-0.0	-0.0	-0.0	-35.042171478271484	16.02101707458496	75.83071899414062	-0.0	-0.0	-0.0	-0.0	-0.0	-0.0
0.5415	-0.0	-0.0	-0.0	-4.294720649719238	2.5145583152771	-709.8917236328125	-0.0	-0.0	-0.0	-34.64612579345703	16.040437698364258	76.03060150146484	-0.0	-0.0	-0.0	-0.0	-0.0	-0.0
0.542	-0.0	-0.0	-0.0	-4.301071643829346	3.030433654785156	-711.91064453125	-0.0	-0.0	-0.0	-35.07415771484375	16.34857177734375	75.83092498779297	-0.0	-0.0	-0.0	-0.0	-0.0	-0.0
0.5425	-0.0	-0.0	-0.0	-5.231619834899902	3.609696388244629	-710.8756713867188	-0.0	-0.0	-0.0	-34.80582427978516	16.117591857910156	75.20538330078125	-0.0	-0.0	-0.0	-0.0	-0.0	-0.0
0.543	-0.0	-0.0	-0.0	-5.633057594299316	4.4437360763549805	-710.9258422851562	-0.0	-0.0	-0.0	-34.79283142089844	16.374473571777344	75.72899627685547	-0.0	-0.0	-0.0	-0.0	-0.0	-0.0
0.5435	-0.0	-0.0	-0.0	-7.047630310058594	4.303895950317383	-710.6234130859375	-0.0	-0.0	-0.0	-34.63349151611328	16.124271392822266	76.37945556640625	-0.0	-0.0	-0.0	-0.0	-0.0	-0.0
0.544	-0.0	-0.0	-0.0	-8.098798751831055	4.412517547607422	-712.0107421875	-0.0	-0.0	-0.0	-34.633567810058594	16.071531295776367	75.42893981933594	-0.0	-0.0	-0.0	-0.0	-0.0	-0.0
0.5445	-0.0	-0.0	-0.0	-8.385787963867188	4.023837089538574	-714.0527954101562	-0.0	-0.0	-0.0	-34.825775146484375	16.091276168823242	76.1566162109375	-0.0	-0.0	-0.0	-0.0	-0.0	-0.0
0.545	-0.0	-0.0	-0.0	-7.870072364807129	4.373899459838867	-714.4314575195312	-0.0	-0.0	-0.0	-34.819244384765625	16.534400939941406	74.61001586914062	-0.0	-0.0	-0.0	-0.0	-0.0	-0.0
0.5455	-0.0	-0.0	-0.0	-8.474998474121094	3.9217376708984375	-715.6463623046875	-0.0	-0.0	-0.0	-34.812686920166016	16.097856521606445	74.85746765136719	-0.0	-0.0	-0.0	-0.0	-0.0	-0.0
0.546	-0.0	-0.0	-0.0	-8.028945922851562	3.7763986587524414	-715.713134765625	-0.0	-0.0	-0.0	-35.1236457824707	16.048322677612305	73.88414001464844	-0.0	-0.0	-0.0	-0.0	-0.0	-0.0
0.5465	-0.0	-0.0	-0.0	-7.857152938842773	4.010868072509766	-719.1005859375	-0.0	-0.0	-0.0	-34.819580078125	16.18775177001953	76.53402709960938	-0.0	-0.0	-0.0	-0.0	-0.0	-0.0
0.547	-0.0	-0.0	-0.0	-7.348495483398437	3.812685012817383	-722.606201171875	-0.0	-0.0	-0.0	-34.779056549072266	16.34726333618164	74.83241271972656	-0.0	-0.0	-0.0	-0.0	-0.0	-0.0
0.5475	-0.0	-0.0	-0.0	-7.69215726852417	4.1490583419799805	-723.7450561523438	-0.0	-0.0	-0.0	-35.30889129638672	16.041955947875977	76.02320098876953	-0.0	-0.0	-0.0	-0.0	-0.0	-0.0
